<?xml version="1.0" encoding="utf-8"?>
<!-- Generator: Adobe Illustrator 23.0.3, SVG Export Plug-In . SVG Version: 6.00 Build 0)  -->
<svg version="1.1" id="Layer_1" xmlns="http://www.w3.org/2000/svg" xmlns:xlink="http://www.w3.org/1999/xlink" x="0px" y="0px"
	 viewBox="0 0 389.6 403.7" style="enable-background:new 0 0 389.6 403.7;" xml:space="preserve">
<style type="text/css">
	.st0{fill:#E13FA5;}
	.st1{fill:#37DEEE;}
</style>
<title>KarmaBoard_Logo_BluePink</title>
<g>
	<g id="Layer_1-2">
		<path class="st0" d="M319.6,202v-0.4c49.3-19.1,70-57.9,70-98.1c-0.1-44.1-28.2-83.3-70-97.5l-171,201l164,193
			c53-14,77-60.3,77-100.5C389.5,255.4,361.4,216.2,319.6,202z"/>
		<polygon class="st1" points="109.6,0 252.6,0 109.6,169 		"/>
		<polygon class="st1" points="110.1,245.5 244.1,403.5 110.1,403.5 		"/>
		<path class="st1" d="M55.1,0.5v403c0,0-19,3-38-14s-17-35-17-35V56.6C0,46.4,2.6,36.3,7.6,27.4c2.9-5.3,6.8-10,11.5-13.9
			C35.1,0.5,55.1,0.5,55.1,0.5z"/>
	</g>
</g>
</svg>
